<?xml version="1.0" encoding="utf-8"?>
<!-- Generator: Adobe Illustrator 16.0.4, SVG Export Plug-In . SVG Version: 6.00 Build 0)  -->
<!DOCTYPE svg PUBLIC "-//W3C//DTD SVG 1.1//EN" "http://www.w3.org/Graphics/SVG/1.1/DTD/svg11.dtd">
<svg version="1.1" id="Layer_1" xmlns="http://www.w3.org/2000/svg" xmlns:xlink="http://www.w3.org/1999/xlink" x="0px" y="0px"
	 width="117.9px" height="34.5px" viewBox="0 0 117.9 34.5" style="enable-background:new 0 0 117.9 34.5;" xml:space="preserve">
<style type="text/css">
<![CDATA[
	.st0{fill:#979FAC;}
	.st1{fill:#FFFFFF;}
]]>
</style>
<g>
	<path class="st1" d="M11,21.3c-0.1,0.2-0.3,0.3-0.5,0.1c-0.6-0.5-0.7-1.1-0.4-2.2c0.6-2.4,1.9-6.1,2.7-7.6c0.1-0.2,0.3-0.3,0.4-0.1
		c0.3,0.5,0.3,1-0.2,2.3c-0.5,1.4-1.3,3.5-2,5.8c1.5-2.4,4-5.8,5.6-7.8c0.1-0.1,0.3-0.2,0.4,0c0.3,0.5,0.4,0.9,0,2.1
		c-0.5,1.5-1.2,3.5-1.8,5.8c1.6-2.6,4.7-6.8,6.1-8.3c0.2-0.2,0.4-0.2,0.4,0.1c0.1,0.6-0.1,1.3-0.9,2.3c-1.2,1.5-3.5,4.5-5.5,7.5
		c-0.1,0.2-0.3,0.3-0.5,0.1c-0.5-0.5-0.7-1.1-0.5-2.2c0.3-1.2,0.8-3,1.3-4.5C14.2,16.5,12.3,19.1,11,21.3z"/>
	<path class="st1" d="M21.1,20.9c1.3,0.1,2.5-1.2,3.2-2.3c0.1-0.1,0.2-0.1,0.3,0c0.1,0.1,0,0.6-0.3,1c-0.7,1-1.9,1.7-3.1,1.7
		c-2,0-2.7-2-1.7-4c1-2.1,2.7-2.9,3.5-2.4c0.4,0.2,0.7,0.5,0.9,0.8c0.3,0.4,0.2,1.4-0.5,2.2c-0.8,1-1.9,1.4-3,0.5
		C19.9,19.8,20.3,20.9,21.1,20.9z M22.5,17.2c0.5-0.7,0.9-1.5,0.6-1.7c-0.3-0.3-1.7,0.7-2.4,2.2c0,0.1-0.1,0.2-0.1,0.3
		C21.3,18.5,22,17.8,22.5,17.2z"/>
	<path class="st1" d="M28.9,21.3c-1.5,0-1.8-2-0.5-4c1.3-1.8,2.5-2.6,3.4-2.6c0.6,0,0.9,0.5,0.9,1.1c0.2-0.4,0.4-0.7,0.6-0.9
		c0.1-0.2,0.3-0.2,0.4-0.1c0.3,0.3,0.4,1,0,1.8c-0.3,0.7-1.2,2-1.5,2.8c-0.4,0.9-0.3,1.5,0.2,1.5c1-0.1,2.5-2.1,3.2-4.4
		c-1.3-0.5,0.2-2.6,0.9-2.7c0.5,0,0.3,0.9,0,2c0.6-0.1,1.2-0.3,1.8-0.8c0.2-0.2,0.3-0.2,0.5,0c0.3,0.3,0.7,1.1,0.2,1.6
		c-0.8,0.9-1.6,2-1.8,2.8c-0.3,0.9-0.1,1.5,0.4,1.5c0.7,0,1.5-1,2-2.2c0.1-0.1,0.2-0.2,0.2,0c0.1,0.2,0.1,0.6-0.1,1
		c-0.4,1-1.4,1.7-2.2,1.6c-1.2,0-1.7-1.2-1.3-2.4c0.3-1.1,1.3-2.2,2-3c-0.7,0.4-1.4,0.6-1.9,0.6c-0.8,2.3-2.2,4.7-3.9,4.8
		c-0.9,0.1-1.4-0.5-1.3-1.3C30.4,20.7,29.7,21.3,28.9,21.3z M29.5,18c-0.9,1.4-1,2.8-0.4,2.8c0.6,0,1.5-1,2.3-2.4
		c1-1.7,1.1-2.8,0.7-2.8C31.6,15.5,30.4,16.6,29.5,18z"/>
	<path class="st1" d="M41.5,20.9c1.3,0.1,2.5-1.2,3.2-2.3c0.1-0.1,0.2-0.1,0.3,0c0.1,0.1,0,0.6-0.3,1c-0.7,1-1.9,1.7-3.1,1.7
		c-2,0-2.7-2-1.7-4c1-2.1,2.7-2.9,3.5-2.4c0.4,0.2,0.7,0.5,0.9,0.8c0.3,0.4,0.2,1.4-0.5,2.2c-0.8,1-1.9,1.4-3,0.5
		C40.3,19.8,40.7,20.9,41.5,20.9z M42.9,17.2c0.5-0.7,0.9-1.5,0.6-1.7c-0.3-0.3-1.7,0.7-2.4,2.2c0,0.1-0.1,0.2-0.1,0.3
		C41.7,18.5,42.4,17.8,42.9,17.2z"/>
	<path class="st1" d="M71.7,17.8c0.4,1.1-0.6,2.3-1.3,2.8c-1.1,0.8-2.5,0.8-3.4,0.3c-0.7-0.4-1.3-1.4-1.4-2.7
		c-0.1-3.4,2.8-6.3,4.6-7c0.9-0.3,1.7-0.4,2.2,0c0.4,0.3,0.7,0.8,0.8,1.2c0.1,0.5,0.1,0.9-0.1,1.4c-0.2,0.5-0.5,1.1-0.6,1.6
		c0,0.1-0.2,0.2-0.4,0.1c-0.4-0.2-0.6-0.7-0.4-1.5c0.3-0.9,0.8-1.8,0.5-2.1c-0.4-0.5-2.9,0.8-4.3,3.2c-1.4,2.3-1.3,4.7-0.5,5.4
		c1,0.8,2.7-0.2,3.9-2.6C71.5,17.6,71.6,17.6,71.7,17.8z"/>
	<path class="st1" d="M83.2,17.9c-0.3,1.4-1.3,3-2.5,3.4c-0.6,0.2-1.4,0.2-2-0.7c-0.6-0.8-0.5-1.8-0.1-2.9c-0.3,0.1-0.6,0.2-1,0.2
		c-0.3,1.4-1.3,3-2.5,3.4c-0.6,0.2-1.4,0.2-2-0.7c-0.7-0.9-0.5-2.4,0.2-3.6c0.6-1.1,1.6-2,2.6-2.1c0.5,0,0.8,0.1,1.1,0.5
		c0.4,0.5,0.8,0.6,0.8,1.8c0,0.1,0,0.2,0,0.2c0.6-0.1,1.3-0.6,1.7-1.2c0.6-0.7,1.3-1.3,2.1-1.3c0.5,0,0.8,0.1,1.1,0.5
		c0.4,0.5,0.9,0.6,0.8,1.8c0,0.1,0,0.2,0,0.4c0.1,0,0.2,0,0.3,0c0.1,0,0.1,0.1,0.1,0.2C83.6,17.8,83.4,17.8,83.2,17.9z M74.3,17.6
		c-0.7,1.2-0.9,2.7-0.5,3c0.4,0.3,1.4-0.2,2.2-1.7c0.3-0.5,0.5-0.9,0.6-1.3c-0.5-0.3-1-0.9-1-1.6C75.1,16.4,74.6,16.9,74.3,17.6z
		 M76.3,16.1c-0.1,0.4,0.1,0.9,0.4,1.1c0.1-0.5,0.1-0.9,0.1-1.2C76.7,15.5,76.4,15.6,76.3,16.1z M81.9,17.5
		c-0.4-0.3-0.8-0.8-0.8-1.4c-0.4,0.3-0.9,0.9-1.2,1.5c-0.7,1.2-0.9,2.7-0.5,3c0.4,0.4,1.4-0.2,2.2-1.7c0.3-0.5,0.4-0.9,0.6-1.3
		C82.1,17.6,82,17.5,81.9,17.5z M82.4,16c-0.1-0.5-0.4-0.4-0.5,0c-0.1,0.4,0.1,0.9,0.4,1.1C82.4,16.7,82.4,16.3,82.4,16z"/>
	<path class="st1" d="M88,14.6c0.6-0.2,1,0,1.3,0.7c0.3,0.6,0.3,1.3-0.3,1.9c-0.5,0.5-1.2,1-2.2,1.3c0.1,1.3,0.5,2.2,1.1,2.3
		c0.7,0.1,1.5-1.2,2-2.2c0.1-0.2,0.2-0.2,0.3,0c0.1,0.2,0,0.6-0.2,1c-0.4,0.7-1.1,1.7-2.4,1.7c-1.1,0-2.1-0.9-2-3.1
		c0-0.3,0-0.3,0.3-0.4c2-0.7,3-2.1,2.8-2.5c-0.2-0.3-0.9-0.1-1.7,0.5c-1.2,0.9-1.9,2.3-3.2,5.3c0,0.1-0.2,0.2-0.3,0
		c-0.2-0.3-0.3-0.8,0-1.8c0.4-1.5,3.1-6.7,4.5-8.7c0.1-0.2,0.3-0.2,0.4,0c0.2,0.5,0.2,1.1-0.5,2.3c-0.4,0.7-1,1.8-1.4,2.6
		C87.1,15,87.6,14.8,88,14.6z"/>
	<path class="st1" d="M89.6,19c0.4-1.2,1.5-3.1,2.1-3.9c0.1-0.2,0.3-0.2,0.4-0.1c0.2,0.3,0.4,0.9,0,1.7c-0.3,0.7-1,1.8-1.3,2.6
		c-0.4,0.9-0.4,1.6,0.2,1.5c0.7,0,1.6-1.1,2.1-2.2c0.1-0.1,0.2-0.1,0.3,0c0.1,0.3,0.1,0.6-0.1,1c-0.5,1-1.5,1.7-2.4,1.7
		C89.4,21.4,89.1,20.3,89.6,19z M93.1,14.8c-0.2,0.2-0.7,0.2-0.9-0.2c-0.3-0.4-0.2-0.9,0.1-1.2c0.3-0.3,0.7-0.1,0.9,0.4
		C93.5,14.2,93.3,14.6,93.1,14.8z"/>
	<path class="st1" d="M97.7,14.8c0.5,0.1,1,0.9,0.6,1.7c-0.3,0.7-1.1,1.9-1.5,2.7c-0.4,0.9-0.3,1.7,0.3,1.7c0.7,0,1.4-1.1,2.1-2.2
		c0.1-0.1,0.2-0.1,0.3,0c0.1,0.2,0.1,0.5-0.1,1c-0.4,0.9-1.4,1.7-2.4,1.7c-1.4,0-1.7-1-1.2-2.4c0.5-1.6,1.9-3.3,1.7-3.4
		c-0.2-0.1-1.1,0.4-2.1,1.5c-0.9,1-1.7,2.6-2.3,4.1c-0.1,0.1-0.2,0.2-0.3,0.1c-0.3-0.3-0.4-0.9-0.2-1.7c0.3-1,1.6-3.2,2.6-4.7
		c0.1-0.2,0.2-0.2,0.3,0c0.2,0.4,0.2,0.9,0,1.5C96,15.6,97.1,14.7,97.7,14.8z"/>
	<path class="st1" d="M102.4,21.8c-0.9,2.1-2,4.7-3.3,5.2c-0.3,0.1-0.6,0.1-0.9-0.3c-0.3-0.5-0.6-1-0.3-2c0.5-1.4,1.8-2.4,3.4-3
		c0.2-0.4,0.3-0.7,0.5-1.1c-0.5,0.5-1,0.8-1.6,0.8c-1.5,0-1.8-2-0.5-3.9c1.3-1.9,2.5-2.6,3.4-2.6c0.6,0,1,0.5,0.9,1.1
		c0.2-0.3,0.4-0.6,0.5-0.9c0.1-0.2,0.3-0.2,0.4-0.1c0.2,0.3,0.4,1,0,1.8c-0.5,1-1.5,2.9-2.2,4.5c1.3-0.7,2.2-1.6,2.9-2.4
		c0.1-0.1,0.2-0.1,0.3,0c0,0.1,0,0.5-0.3,0.9C104.9,20.6,103.7,21.3,102.4,21.8z M98.5,26.1c0.2,0.3,1.5-1.4,2.5-3.8
		C98.9,23.5,98.2,25.7,98.5,26.1z M103.3,15.6c-0.5,0-1.7,1-2.5,2.4c-0.9,1.4-1,2.8-0.4,2.8c0.6,0,1.4-1,2.3-2.4
		C103.6,16.7,103.7,15.7,103.3,15.6z"/>
	<path class="st1" d="M107.3,21.3c-0.2,0.2-0.7,0.1-0.9-0.2c-0.3-0.4-0.2-0.9,0.1-1.2c0.2-0.3,0.7-0.1,0.9,0.4
		C107.6,20.6,107.5,21.1,107.3,21.3z M111.4,11.3c0.2,0.4,0.2,1.2-0.5,2.4c-0.9,1.6-2.2,4.1-3,5.9c-0.1,0.2-0.1,0.2-0.3,0.1
		c-0.2-0.3-0.4-0.8,0-1.7c0.6-1.7,2.2-4.9,3.4-6.7C111.1,11.1,111.3,11.1,111.4,11.3z"/>
</g>
<g>
	<path class="st0" d="M62.4,23.8c-2.9,5.3-6.6,5.5-8.7,4.9c-3.1-0.8-5.4-4-5.5-6.4c0-0.2-0.1-1,1.4-1.6c3.5-1.3,11.7-0.1,12.7,1.2
		c0.1,0.1,0.1,0.1,0,0.2c-0.8,1.1-5.1,1.9-8.9,1.4c-4.8-0.6-4-1.7-4.3-1.6c-0.2,0.1-0.3,0.3-0.2,0.5c0.5,1.2,2.7,1.7,4.4,1.8
		c3.3,0.4,8.5-0.1,9.7-1.8c0.2-0.4,0.2-0.8-0.1-1.1c-1.3-1.7-9.8-2.9-13.6-1.4c-1.7,0.6-2,1.6-1.9,2.3c0.2,2.7,2.7,6.3,6.1,7.2
		c0.5,0.1,1,0.2,1.6,0.2c2.1,0,4.6-0.9,7.5-5.4C62.7,24.2,62.8,23.1,62.4,23.8z"/>
	<path class="st1" d="M51.5,11.4c0.2,0.1,0.4,0.1,0.6,0.1c0.3,0,0.6-0.1,0.8-0.2l1.6,1.6l-0.9,0.9c0,0-3.4,4-3,3.9
		c0.1,0,0.2,0,0.3-0.1l4.1-4.1l4.3,4.3c0.1,0.1,0.2,0.1,0.3,0.1c0.4-0.1-2.6-3.5-2.6-3.5l-1.4-1.4l0.9-0.9c0.3,0.2,0.7,0.3,1.1,0.3
		c0.9,0,1.9-0.5,2.7-1.3c0.6-0.6,1.1-1.4,1.2-2.2c0.2-0.8,0-1.5-0.5-2c-0.4-0.4-0.9-0.6-1.5-0.6c-0.9,0-1.9,0.5-2.7,1.3
		c-1.2,1.2-1.6,2.9-0.9,3.9L55,12.3l-1.6-1.6c0.2-0.4,0.4-1,0.1-1.8c-0.5-1.3-2.2-2.9-2.4-2.7c-0.2,0.2,0.2,0.4,0.4,0.6
		c0.7,0.5,1.3,1.9,1.5,2.3c0.3,0.7,0,0.7-0.2,1c0,0-0.5-0.3-1-0.7c-1-0.7-2.2-1.7-2.1-1.3l2.5,2.5c-0.1,0-0.3,0-0.5,0
		c-1.2-0.3-2.4-1.3-2.6-1.5c-0.2-0.2-0.5-0.4-0.6-0.3C48.3,9,50,11.1,51.5,11.4z M57,8c0.6-0.6,1.5-1.2,2.2-1.3
		c0.7-0.1,1.1,0.2,1.4,0.4C61,7.4,60.9,8,60.7,8.7c-0.1,0.6-0.5,1.2-1,1.8c-0.6,0.6-1.5,1-2.2,1c-0.3,0-0.6-0.1-0.9-0.3
		C56,10.5,56,9,57,8z"/>
</g>
<image src="logo.png" />
</svg>
